<?xml version="1.0" encoding="UTF-8"?>
<svg width="134px" height="32px" viewBox="0 0 134 32" version="1.1" xmlns="http://www.w3.org/2000/svg" xmlns:xlink="http://www.w3.org/1999/xlink">
    <title>编组</title>
    <g id="可视化平台" stroke="none" stroke-width="1" fill="none" fill-rule="evenodd">
        <g id="可视化" transform="translate(-20.000000, -99.000000)">
            <g id="编组" transform="translate(20.000000, 99.771937)">
                <polygon id="Fill-1" fill="#FAC300" points="127.676186 3.12742084 121.117277 18.7509909 124.263001 26.9217533 133.785245 3.12742084"></polygon>
                <polygon id="Fill-2" fill="#00A0E8" points="104.151505 3.12742084 112.39445 3.12742084 122.983314 29.8025947 114.74037 29.8025947"></polygon>
                <g fill="#FFFFFF" id="形状结合">
                    <path d="M0.36928907,30.7109298 L6.94753259,30.7109298 L6.94753259,9.68272075 L0.36928907,9.68272075 L0.36928907,30.7109298 Z M0,3.36291513 C0,1.33021403 1.4410652,0 3.65873307,0 C5.8390209,0 7.31746615,1.33021403 7.31746615,3.36291513 C7.31746615,5.43235178 5.8390209,6.76256582 3.65873307,6.76256582 C1.4410652,6.76256582 0,5.43235178 0,3.36291513 L0,3.36291513 Z M12.7512358,3.17807725 L19.3662149,3.17807725 L19.3662149,14.0801609 L19.4777105,14.0801609 L27.2746724,3.17807725 L34.518023,3.17807725 L26.2028963,14.2283921 L36.0705838,30.7104142 L28.8639689,30.7104142 L22.3598409,19.4390415 L19.3662149,23.5044437 L19.3662149,30.7104142 L12.7512358,30.7104142 L12.7512358,3.17807725 Z M38.4015519,30.7109298 L44.9797954,30.7109298 L44.9797954,9.68272075 L38.4015519,9.68272075 L38.4015519,30.7109298 Z M38.0322628,3.36291513 C38.0322628,1.33021403 39.473328,0 41.6909959,0 C43.8706393,0 45.3490845,1.33021403 45.3490845,3.36291513 C45.3490845,5.43235178 43.8706393,6.76256582 41.6909959,6.76256582 C39.473328,6.76256582 38.0322628,5.43235178 38.0322628,3.36291513 L38.0322628,3.36291513 Z M50.7827253,3.17807725 L57.5092,3.17807725 L64.3458814,16.3712999 L67.0430451,22.4694031 L67.2286563,22.4694031 C66.8954583,19.5498927 66.3412025,15.5953417 66.3412025,12.3065422 L66.3412025,3.17807725 L72.6242725,3.17807725 L72.6242725,30.7104142 L65.8977978,30.7104142 L59.0978519,17.443076 L56.4000438,11.4197328 L56.215077,11.4197328 C56.510895,14.48683 57.0651508,18.2564142 57.0651508,21.5825938 L57.0651508,30.7104142 L50.7827253,30.7104142 L50.7827253,3.17807725 Z M77.7635132,17.1106514 C77.7635132,7.94545091 83.9350876,2.69742142 91.2892893,2.69742142 C95.317956,2.69742142 98.2007308,4.39756901 100.085845,6.28268337 L96.6114344,10.4956723 C95.2438403,9.27566495 93.8027751,8.35212003 91.5116362,8.35212003 C87.446234,8.35212003 84.5267235,11.5300684 84.5267235,16.888949 C84.5267235,22.3586809 86.9654492,25.5366292 92.1026276,25.5366292 C93.0635525,25.5366292 94.0985931,25.2781913 94.690229,24.8341422 L94.690229,20.4000954 L90.3290088,20.4000954 L90.3290088,15.0038347 L100.565985,15.0038347 L100.565985,27.8651483 C98.643491,29.7128826 95.2438403,31.2280634 91.400785,31.2280634 C83.7881454,31.2280634 77.7635132,26.4234386 77.7635132,17.1106514"></path>
                </g>
            </g>
        </g>
    </g>
</svg>